<?xml version="1.0" standalone="no"?>
<!DOCTYPE svg PUBLIC "-//W3C//DTD SVG 20010904//EN"
 "http://www.w3.org/TR/2001/REC-SVG-20010904/DTD/svg10.dtd">
<svg version="1.0" xmlns="http://www.w3.org/2000/svg"
 width="1024.000000pt" height="1024.000000pt" viewBox="0 0 1024.000000 1024.000000"
 preserveAspectRatio="xMidYMid meet">

<g transform="translate(0.000000,1024.000000) scale(0.100000,-0.100000)"
fill="#000000" stroke="none">
<path d="M5935 8921 c-30 -18 -389 -392 -706 -733 -95 -104 -176 -188 -179
-188 -3 0 -93 93 -200 207 -107 113 -307 320 -445 459 -217 220 -255 254 -287
260 -100 17 -114 -9 -128 -237 -11 -188 -25 -351 -40 -469 -8 -62 -50 -542
-50 -570 0 -8 -353 62 -496 99 -154 39 -486 111 -515 111 -39 0 -79 -40 -79
-78 0 -33 92 -258 167 -407 28 -55 72 -149 98 -210 26 -60 86 -186 132 -279
46 -92 83 -169 81 -171 -2 -1 -90 -28 -196 -59 -243 -72 -452 -141 -501 -165
-48 -25 -61 -41 -68 -86 -6 -34 -2 -39 73 -113 88 -87 372 -334 538 -468 l109
-89 -44 -39 c-114 -102 -256 -221 -352 -295 -107 -83 -126 -108 -112 -150 8
-26 72 -71 162 -114 37 -18 118 -62 178 -98 61 -36 145 -85 188 -109 53 -29
76 -47 73 -57 -3 -7 -49 -86 -101 -174 -101 -169 -113 -198 -96 -241 21 -56
43 -61 285 -69 121 -4 279 -11 350 -15 120 -6 129 -8 134 -28 9 -37 92 -189
140 -256 25 -36 91 -111 145 -167 86 -89 100 -107 102 -140 l3 -38 -102 -49
c-491 -239 -871 -439 -1016 -534 -47 -31 -115 -87 -152 -125 -82 -83 -189
-240 -230 -337 -28 -69 -118 -428 -118 -475 0 -14 13 -34 32 -50 27 -23 39
-26 72 -22 23 3 48 14 57 25 8 11 30 87 49 168 67 304 110 400 234 531 44 47
105 102 136 123 62 41 538 308 661 370 l80 40 -7 -27 c-4 -16 -25 -64 -47
-108 -22 -44 -61 -127 -87 -185 -25 -58 -83 -175 -129 -260 -45 -85 -84 -165
-87 -178 -12 -43 18 -82 140 -186 66 -57 136 -119 153 -138 l33 -34 -136 -134
c-74 -74 -142 -147 -150 -162 -33 -62 -6 -116 64 -125 42 -6 42 -5 124 77 46
46 140 135 211 198 91 82 127 121 127 137 0 16 -45 65 -157 170 -87 82 -171
160 -187 175 l-28 28 95 183 c91 176 271 565 283 614 7 27 30 50 61 59 l21 7
4 -803 c3 -644 7 -808 17 -830 26 -51 98 -60 138 -16 17 19 18 54 18 632 0
336 3 612 8 614 4 1 34 -12 68 -28 102 -52 258 -99 362 -110 192 -20 371 17
570 116 l87 44 1 -72 c1 -40 4 -317 8 -615 6 -530 6 -542 27 -570 24 -32 42
-38 90 -28 69 12 66 -27 58 866 l-7 800 27 -11 c49 -18 66 -30 66 -47 0 -28
199 -465 285 -625 47 -86 85 -161 85 -165 0 -5 -81 -89 -180 -188 -121 -121
-180 -187 -180 -201 0 -15 40 -57 128 -135 70 -62 164 -148 209 -191 71 -68
86 -78 118 -78 25 0 43 8 62 26 22 22 25 32 20 67 -5 39 -17 53 -152 183
l-148 140 109 100 c209 192 214 198 214 235 0 24 -28 87 -92 209 -79 151 -165
329 -241 502 -11 26 -18 51 -14 55 8 7 586 -279 707 -351 122 -71 220 -171
293 -296 42 -73 94 -244 121 -400 22 -128 28 -148 51 -168 55 -47 145 -14 145
53 0 48 -65 368 -88 435 -62 179 -241 414 -390 511 -109 71 -524 278 -807 402
-137 60 -271 118 -296 130 -40 17 -48 25 -52 54 -5 31 -1 38 89 125 128 124
174 190 292 419 23 46 24 47 84 53 33 4 178 11 320 16 291 9 299 11 327 83 13
34 12 38 -33 124 -66 124 -148 294 -144 298 2 1 120 61 263 133 288 145 345
184 345 237 0 18 -8 42 -17 53 -10 11 -97 89 -193 172 -96 84 -194 170 -218
192 l-43 39 25 20 c13 11 69 57 124 103 55 46 147 119 203 162 143 108 319
254 352 293 29 35 36 86 15 113 -22 28 -82 52 -423 173 -181 64 -332 118 -334
120 -2 2 50 120 114 262 65 142 150 332 190 423 40 91 93 207 119 259 53 108
57 141 21 176 -19 20 -34 25 -75 25 -28 0 -70 -4 -93 -10 -23 -5 -109 -21
-192 -36 -82 -14 -238 -48 -345 -74 -277 -69 -311 -75 -321 -59 -11 19 -16 69
-39 379 -11 151 -27 325 -35 385 -8 61 -21 175 -30 255 -19 172 -27 205 -56
236 -27 29 -63 30 -104 5z m-1440 -616 c495 -529 525 -557 588 -542 12 4 135
130 277 284 140 153 323 349 405 436 l150 159 7 -104 c22 -309 92 -1027 103
-1055 9 -22 23 -35 42 -39 30 -8 239 30 628 116 254 55 295 63 295 55 0 -3
-41 -87 -91 -188 -159 -317 -349 -745 -349 -786 0 -73 55 -105 321 -186 254
-77 399 -127 399 -136 0 -17 -201 -182 -523 -428 -82 -62 -153 -124 -159 -136
-19 -41 0 -71 99 -162 236 -215 343 -316 343 -322 0 -3 -90 -52 -200 -108
l-200 -103 0 78 c0 149 -65 326 -138 380 -21 15 -66 40 -99 56 -58 27 -61 31
-57 60 8 61 24 301 24 370 1 40 8 88 17 111 24 61 28 131 9 160 -13 20 -25 25
-61 25 -43 0 -44 1 -50 38 -45 267 -79 386 -147 522 -89 176 -167 271 -319
384 -139 105 -224 152 -355 196 -183 62 -258 75 -434 74 -177 0 -260 -14 -441
-74 -146 -48 -213 -82 -314 -157 -214 -159 -365 -374 -444 -628 -25 -80 -71
-306 -71 -346 0 -5 -18 -9 -39 -9 -30 0 -44 -6 -55 -22 -20 -29 -21 -118 -1
-144 10 -13 14 -46 15 -109 0 -78 17 -258 36 -377 5 -34 3 -37 -24 -43 -16 -3
-56 -25 -88 -49 -131 -95 -158 -155 -159 -346 0 -69 4 -138 8 -153 l8 -28 -33
17 c-37 19 -299 172 -370 216 l-47 29 197 171 c274 237 282 246 282 284 0 38
10 29 -335 311 -257 209 -345 286 -345 302 0 5 125 45 278 91 347 103 375 114
408 153 40 47 30 83 -91 337 -132 276 -325 683 -325 686 0 3 135 -25 210 -44
41 -11 152 -34 245 -51 94 -18 226 -43 295 -57 182 -37 205 -39 234 -20 35 22
43 63 56 271 6 99 22 308 36 464 13 156 24 323 24 369 l0 86 36 -35 c20 -18
150 -155 289 -304z m648 -970 c134 -10 320 -73 459 -156 155 -91 313 -282 399
-479 42 -98 85 -248 95 -334 l6 -51 -343 8 c-369 8 -444 5 -488 -17 -38 -20
-86 -76 -116 -136 l-25 -50 -123 0 -122 0 -40 72 c-22 39 -57 85 -78 102 l-39
31 -404 3 c-373 3 -405 5 -400 20 3 9 21 80 41 157 20 77 54 177 75 222 135
289 394 506 698 584 81 21 233 38 292 33 19 -2 70 -6 113 -9z m-463 -1212 c60
-67 77 -222 40 -367 -42 -167 -148 -250 -353 -278 -125 -16 -222 -7 -285 27
-102 55 -168 153 -197 292 -18 82 -19 219 -4 296 l12 56 111 4 c61 2 232 3
379 3 l269 -1 28 -32z m1354 18 c60 -6 60 -6 84 -56 20 -39 26 -70 30 -145 10
-216 -69 -376 -220 -446 -58 -26 -72 -29 -178 -29 -95 0 -127 4 -184 24 -132
45 -237 140 -266 239 -21 68 -24 262 -7 323 20 68 45 91 105 100 54 7 547 0
636 -10z m-933 -227 c3 -1 6 -27 8 -56 13 -289 155 -469 426 -538 91 -24 296
-29 377 -11 75 17 156 51 188 78 21 17 30 21 30 10 0 -57 -33 -453 -46 -542
-18 -134 -64 -327 -99 -420 -126 -336 -375 -565 -713 -657 -113 -31 -392 -30
-507 1 -335 90 -615 365 -728 716 -56 173 -81 316 -122 685 -14 129 -28 241
-30 248 -3 8 16 -2 42 -21 51 -37 120 -69 193 -88 64 -17 271 -15 352 5 257
61 447 290 448 540 l0 68 88 -7 c48 -4 90 -9 93 -11z m-1358 -757 c21 -138 38
-257 37 -263 0 -8 -11 -8 -42 0 -34 9 -47 20 -74 62 -52 81 -67 141 -62 242 4
69 10 98 31 139 23 44 48 72 67 73 3 0 22 -114 43 -253z m2622 241 c47 -21 95
-135 95 -222 -1 -101 -64 -271 -117 -318 -10 -9 -33 -18 -52 -20 l-34 -5 7 96
c4 53 15 181 26 286 11 104 20 191 20 192 0 7 32 2 55 -9z m-2720 -653 c71
-36 134 -65 141 -65 7 0 21 -28 31 -62 l19 -63 -76 -3 c-67 -3 -391 15 -398
22 -3 4 91 168 119 208 11 15 24 28 29 28 4 0 65 -29 135 -65z m2899 3 c16
-18 43 -65 61 -104 l33 -71 -112 -6 c-61 -4 -158 -11 -215 -17 -57 -6 -106 -9
-108 -6 -2 2 1 22 8 44 10 34 16 41 44 45 70 11 185 68 218 108 18 21 34 39
37 39 3 0 18 -15 34 -32z m-1832 -1149 c108 -27 339 -36 475 -19 126 15 266
51 330 84 l50 25 7 -56 c4 -31 3 -96 0 -145 -6 -74 -12 -96 -36 -134 -25 -40
-42 -52 -161 -109 -151 -74 -197 -85 -347 -85 -189 0 -360 49 -463 134 -89 73
-91 77 -94 242 -2 80 -1 150 3 155 3 6 38 -8 80 -31 40 -22 111 -49 156 -61z"/>
<path d="M5640 6628 c-41 -5 -370 -10 -730 -12 -696 -3 -720 -5 -766 -51 -34
-34 -33 -87 3 -115 24 -19 35 -21 83 -14 30 4 336 8 680 9 750 2 904 14 950
72 25 32 26 85 2 106 -21 19 -92 20 -222 5z"/>
<path d="M4304 5990 c-88 -27 -119 -154 -52 -220 105 -105 276 30 198 157 -34
56 -89 79 -146 63z"/>
<path d="M5618 5974 c-39 -21 -58 -64 -58 -130 0 -50 3 -59 34 -90 30 -30 40
-34 86 -34 46 0 56 4 86 34 31 31 34 39 34 94 0 45 -5 66 -21 86 -42 53 -107
70 -161 40z"/>
<path d="M4776 5307 c-19 -19 -24 -38 -30 -106 -6 -76 -4 -88 19 -139 14 -32
38 -70 53 -85 53 -55 219 -79 297 -41 53 25 131 104 155 157 45 97 15 197 -57
197 -50 0 -68 -20 -95 -106 -21 -70 -25 -75 -58 -84 -47 -13 -80 -12 -110 3
-23 11 -25 20 -30 96 -5 75 -9 86 -33 107 -36 31 -81 31 -111 1z"/>
<path d="M5450 4665 c-153 -40 -233 -47 -643 -53 l-389 -7 -24 -28 c-30 -35
-32 -87 -4 -112 30 -27 174 -38 445 -32 272 6 497 27 665 63 136 28 164 45
168 101 7 89 -59 109 -218 68z"/>
</g>
</svg>
